<svg width="311" height="65" viewBox="0 0 311 65" fill="none" xmlns="http://www.w3.org/2000/svg">
<path d="M26.95 34.35C27.15 34.2833 27.3333 34.2833 27.5 34.35C27.6667 34.3833 27.75 34.5 27.75 34.7L27.85 36.65C27.8833 37.0833 27.65 37.3833 27.15 37.55C26.05 37.9167 24.9167 38.1833 23.75 38.35C22.5833 38.5167 21.1167 38.6 19.35 38.6C13.55 38.6 8.93333 36.8333 5.5 33.3C3.8 31.5667 2.53333 29.55 1.7 27.25C0.9 24.95 0.5 22.35 0.5 19.45C0.5 13.75 2.21667 9.13335 5.65 5.60001C9.15 2.06668 13.7167 0.300014 19.35 0.300014C20.15 0.300014 20.8667 0.31668 21.5 0.350013C22.1667 0.383346 22.8 0.433346 23.4 0.500011C24.0333 0.566679 24.65 0.650012 25.25 0.750011C25.85 0.850012 26.4833 0.983345 27.15 1.15001C27.65 1.25001 27.8833 1.56668 27.85 2.10001L27.75 4.10001C27.6833 4.56668 27.4333 4.71668 27 4.55001C25.7 4.11668 24.4667 3.83335 23.3 3.70001C22.1333 3.53335 20.8167 3.45001 19.35 3.45001C14.65 3.45001 10.9 4.95001 8.1 7.95001C5.5 10.85 4.2 14.6833 4.2 19.45C4.2 21.85 4.51667 24.0167 5.15 25.95C5.78333 27.8833 6.75 29.5667 8.05 31C10.75 34 14.5167 35.4833 19.35 35.45C20.75 35.4167 22.1333 35.3167 23.5 35.15C24.9 34.9833 26.05 34.7167 26.95 34.35Z" fill="white"/>
<path d="M65.0938 19.45C65.0938 17.35 64.8271 15.3667 64.2938 13.5C63.7604 11.6333 63.0104 9.95001 62.0438 8.45001C60.8771 6.81668 59.4771 5.56668 57.8438 4.70001C56.2438 3.80001 54.4271 3.35001 52.3938 3.35001C50.3271 3.35001 48.4771 3.80001 46.8438 4.70001C45.2437 5.56668 43.8604 6.81668 42.6937 8.45001C41.7271 9.95001 40.9771 11.6333 40.4437 13.5C39.9104 15.3667 39.6437 17.35 39.6437 19.45C39.6437 21.55 39.9104 23.55 40.4437 25.45C40.9771 27.3167 41.7271 29 42.6937 30.5C43.8937 32.1 45.3104 33.35 46.9437 34.25C48.5771 35.15 50.3938 35.6 52.3938 35.6C54.4271 35.6 56.2438 35.1667 57.8438 34.3C59.4771 33.4 60.8771 32.1333 62.0438 30.5C63.0104 29 63.7604 27.3167 64.2938 25.45C64.8271 23.55 65.0938 21.55 65.0938 19.45ZM68.7438 19.45C68.6771 25.3833 67.3104 30.0167 64.6438 33.35C61.7438 36.95 57.6604 38.75 52.3938 38.75C47.1271 38.75 43.0271 36.95 40.0938 33.35C37.3604 29.9167 35.9938 25.2833 35.9938 19.45C35.9938 16.6833 36.3271 14.1833 36.9938 11.95C37.6604 9.71668 38.6271 7.73335 39.8937 6.00001C41.3937 4.16668 43.1938 2.75001 45.2938 1.75001C47.4271 0.716679 49.7938 0.200012 52.3938 0.200012C55.0271 0.200012 57.3771 0.700013 59.4437 1.70001C61.5437 2.70001 63.3437 4.15001 64.8438 6.05001C66.1437 7.85001 67.1271 9.86668 67.7938 12.1C68.4604 14.3 68.7771 16.75 68.7438 19.45Z" fill="white"/>
<path d="M78.2492 37.45C77.7159 37.2833 77.4992 36.9833 77.5992 36.55L77.7992 34.25C77.8659 33.9833 77.9659 33.8 78.0992 33.7C78.2659 33.6 78.4492 33.6167 78.6492 33.75C79.8159 34.3833 80.9825 34.85 82.1492 35.15C83.3492 35.4167 84.7159 35.55 86.2492 35.55C88.6826 35.55 90.6659 34.8833 92.1992 33.55C93.7659 32.2167 94.5492 30.3333 94.5492 27.9C94.5492 26.9333 94.1659 25.9667 93.3992 25C92.6659 24.0333 91.6326 23.1167 90.2992 22.25C89.1326 21.5167 87.8159 20.75 86.3492 19.95C84.8826 19.15 83.4825 18.2833 82.1492 17.35C80.8159 16.3833 79.6992 15.3167 78.7992 14.15C77.8992 12.95 77.4492 11.5667 77.4492 10C77.4492 8.40001 77.7826 7.00001 78.4492 5.80001C79.1159 4.56668 79.9992 3.55001 81.0992 2.75001C82.2326 1.91668 83.5159 1.28335 84.9492 0.850013C86.3826 0.416679 87.8492 0.200012 89.3492 0.200012C90.6492 0.200012 91.7992 0.283345 92.7992 0.450012C93.7992 0.583346 94.8825 0.833345 96.0492 1.20001C96.5492 1.36668 96.7492 1.66668 96.6492 2.10001L96.2492 4.05001C96.1492 4.61668 95.8659 4.76668 95.3992 4.50001C94.4659 4.06668 93.5492 3.78335 92.6492 3.65001C91.7825 3.48335 90.6659 3.40001 89.2992 3.40001C88.1992 3.40001 87.1492 3.53335 86.1492 3.80001C85.1826 4.06668 84.3326 4.46668 83.5992 5.00001C82.8992 5.53335 82.3325 6.20001 81.8992 7.00001C81.4659 7.80001 81.2492 8.75001 81.2492 9.85001C81.2492 10.7167 81.5326 11.5333 82.0992 12.3C82.6992 13.0667 83.4159 13.7833 84.2492 14.45C85.1159 15.1167 86.0326 15.7333 86.9992 16.3C87.9992 16.8333 88.8992 17.3333 89.6992 17.8C90.7992 18.4333 91.8659 19.0833 92.8992 19.75C93.9325 20.4167 94.8492 21.1667 95.6492 22C96.4492 22.8333 97.0992 23.75 97.5992 24.75C98.0992 25.75 98.3492 26.9 98.3492 28.2C98.3492 29.8667 97.9992 31.35 97.2992 32.65C96.6326 33.95 95.7326 35.05 94.5992 35.95C93.4659 36.85 92.1492 37.5333 90.6492 38C89.1826 38.5 87.6492 38.75 86.0492 38.75C84.5826 38.75 83.2659 38.65 82.0992 38.45C80.9659 38.25 79.6826 37.9167 78.2492 37.45Z" fill="white"/>
<path d="M146.345 37.25C146.345 37.7167 146.112 37.95 145.645 37.95H143.395C142.929 37.95 142.695 37.7167 142.695 37.25V4.10001C140.229 10.2333 138.012 15.7167 136.045 20.55C135.212 22.6167 134.395 24.65 133.595 26.65C132.795 28.6167 132.079 30.3833 131.445 31.95C130.812 33.4833 130.295 34.7333 129.895 35.7C129.495 36.6667 129.295 37.1667 129.295 37.2C129.129 37.5333 128.879 37.7 128.545 37.7H126.295C126.062 37.7 125.895 37.6667 125.795 37.6C125.695 37.5 125.612 37.3667 125.545 37.2L111.745 4.10001V37.25C111.745 37.7167 111.512 37.95 111.045 37.95H108.795C108.329 37.95 108.095 37.7167 108.095 37.25V2.25001C108.095 1.55001 108.145 1.15001 108.245 1.05001C108.379 0.91668 108.795 0.850013 109.495 0.850013H113.245C113.512 0.850013 113.695 0.883346 113.795 0.950011C113.929 1.01668 114.045 1.18335 114.145 1.45001L127.445 33.8L140.345 1.40001C140.479 1.03335 140.745 0.850013 141.145 0.850013H144.945C145.645 0.850013 146.045 0.91668 146.145 1.05001C146.279 1.15001 146.345 1.55001 146.345 2.25001V37.25Z" fill="white"/>
<path d="M161.983 39.45C161.983 39.9167 161.749 40.15 161.283 40.15H158.883C158.416 40.15 158.183 39.9167 158.183 39.45V3.85001C158.183 3.38335 158.416 3.15001 158.883 3.15001H161.283C161.749 3.15001 161.983 3.38335 161.983 3.85001V39.45Z" fill="white"/>
<path d="M197.692 34.35C197.892 34.2833 198.076 34.2833 198.242 34.35C198.409 34.3833 198.492 34.5 198.492 34.7L198.592 36.65C198.626 37.0833 198.392 37.3833 197.892 37.55C196.792 37.9167 195.659 38.1833 194.492 38.35C193.326 38.5167 191.859 38.6 190.092 38.6C184.292 38.6 179.676 36.8333 176.242 33.3C174.542 31.5667 173.276 29.55 172.442 27.25C171.642 24.95 171.242 22.35 171.242 19.45C171.242 13.75 172.959 9.13335 176.392 5.60001C179.892 2.06668 184.459 0.300014 190.092 0.300014C190.892 0.300014 191.609 0.31668 192.242 0.350013C192.909 0.383346 193.542 0.433346 194.142 0.500011C194.776 0.566679 195.392 0.650012 195.992 0.750011C196.592 0.850012 197.226 0.983345 197.892 1.15001C198.392 1.25001 198.626 1.56668 198.592 2.10001L198.492 4.10001C198.426 4.56668 198.176 4.71668 197.742 4.55001C196.442 4.11668 195.209 3.83335 194.042 3.70001C192.876 3.53335 191.559 3.45001 190.092 3.45001C185.392 3.45001 181.642 4.95001 178.842 7.95001C176.242 10.85 174.942 14.6833 174.942 19.45C174.942 21.85 175.259 24.0167 175.892 25.95C176.526 27.8833 177.492 29.5667 178.792 31C181.492 34 185.259 35.4833 190.092 35.45C191.492 35.4167 192.876 35.3167 194.242 35.15C195.642 34.9833 196.792 34.7167 197.692 34.35Z" fill="white"/>
<path d="M209.786 38C209.086 38 208.669 37.95 208.536 37.85C208.436 37.7167 208.386 37.3 208.386 36.6V2.15001C208.386 1.51668 208.436 1.15001 208.536 1.05001C208.669 0.91668 209.053 0.850013 209.686 0.850013H227.036C227.503 0.850013 227.736 1.08335 227.736 1.55001V3.30001C227.736 3.76668 227.503 4.00001 227.036 4.00001H212.036V17.2H226.286C226.753 17.2 226.986 17.4333 226.986 17.9V19.7C226.986 20.1667 226.753 20.4 226.286 20.4H212.036V34.8H227.636C228.103 34.8 228.336 35.0333 228.336 35.5V37.3C228.336 37.7667 228.103 38 227.636 38H209.786Z" fill="#00FFAD"/>
<path d="M267.345 17.95C268.045 17.95 268.445 18.0167 268.545 18.15C268.678 18.25 268.745 18.65 268.745 19.35V35.2C268.745 35.5667 268.628 35.8833 268.395 36.15C268.195 36.4167 267.961 36.6167 267.695 36.75C266.095 37.35 264.411 37.8 262.645 38.1C260.911 38.4333 259.095 38.6 257.195 38.6C254.428 38.6 251.861 38.1833 249.495 37.35C247.161 36.4833 245.145 35.25 243.445 33.65C241.745 32.0167 240.411 30.0167 239.445 27.65C238.511 25.25 238.045 22.5167 238.045 19.45C238.045 16.65 238.478 14.0833 239.345 11.75C240.245 9.41668 241.511 7.40001 243.145 5.70001C244.811 4.00001 246.828 2.68335 249.195 1.75001C251.561 0.783347 254.228 0.300014 257.195 0.300014C259.061 0.300014 260.678 0.383347 262.045 0.550014C263.445 0.71668 264.928 1.05001 266.495 1.55001C266.995 1.68335 267.195 2.01668 267.095 2.55001L266.845 4.40001C266.811 4.83335 266.561 4.98335 266.095 4.85001C264.595 4.28335 263.161 3.91668 261.795 3.75001C260.428 3.55001 258.895 3.45001 257.195 3.45001C254.828 3.45001 252.678 3.85001 250.745 4.65001C248.845 5.41668 247.211 6.50001 245.845 7.90001C244.511 9.30001 243.478 10.9833 242.745 12.95C242.045 14.9167 241.695 17.0833 241.695 19.45C241.695 22.0167 242.078 24.3 242.845 26.3C243.611 28.3 244.678 29.9833 246.045 31.35C247.445 32.6833 249.078 33.7 250.945 34.4C252.845 35.1 254.928 35.45 257.195 35.45C260.895 35.45 263.528 35 265.095 34.1V21.1H255.045C254.578 21.1 254.345 20.8667 254.345 20.4V18.65C254.345 18.1833 254.578 17.95 255.045 17.95H267.345Z" fill="#00FFAD"/>
<path d="M309.188 17.95C309.888 17.95 310.288 18.0167 310.388 18.15C310.522 18.25 310.588 18.65 310.588 19.35V35.2C310.588 35.5667 310.472 35.8833 310.238 36.15C310.038 36.4167 309.805 36.6167 309.538 36.75C307.938 37.35 306.255 37.8 304.488 38.1C302.755 38.4333 300.938 38.6 299.038 38.6C296.272 38.6 293.705 38.1833 291.338 37.35C289.005 36.4833 286.988 35.25 285.288 33.65C283.588 32.0167 282.255 30.0167 281.288 27.65C280.355 25.25 279.888 22.5167 279.888 19.45C279.888 16.65 280.322 14.0833 281.188 11.75C282.088 9.41668 283.355 7.40001 284.988 5.70001C286.655 4.00001 288.672 2.68335 291.038 1.75001C293.405 0.783347 296.072 0.300014 299.038 0.300014C300.905 0.300014 302.522 0.383347 303.888 0.550014C305.288 0.71668 306.772 1.05001 308.338 1.55001C308.838 1.68335 309.038 2.01668 308.938 2.55001L308.688 4.40001C308.655 4.83335 308.405 4.98335 307.938 4.85001C306.438 4.28335 305.005 3.91668 303.638 3.75001C302.272 3.55001 300.738 3.45001 299.038 3.45001C296.672 3.45001 294.522 3.85001 292.588 4.65001C290.688 5.41668 289.055 6.50001 287.688 7.90001C286.355 9.30001 285.322 10.9833 284.588 12.95C283.888 14.9167 283.538 17.0833 283.538 19.45C283.538 22.0167 283.922 24.3 284.688 26.3C285.455 28.3 286.522 29.9833 287.888 31.35C289.288 32.6833 290.922 33.7 292.788 34.4C294.688 35.1 296.772 35.45 299.038 35.45C302.738 35.45 305.372 35 306.938 34.1V21.1H296.888C296.422 21.1 296.188 20.8667 296.188 20.4V18.65C296.188 18.1833 296.422 17.95 296.888 17.95H309.188Z" fill="#00FFAD"/>
<path d="M8.527 59.099C8.527 57.721 8.14567 56.7027 7.383 56.044C6.707 55.4633 5.77967 55.173 4.601 55.173H3.197V63.168H3.99C7.01467 63.168 8.527 61.8117 8.527 59.099ZM9.476 59.151C9.476 59.957 9.33733 60.6763 9.06 61.309C8.78267 61.9417 8.397 62.466 7.903 62.882C7.435 63.2373 6.86733 63.5103 6.2 63.701C5.53267 63.8917 4.77867 63.987 3.938 63.987H2.599C2.417 63.987 2.30867 63.974 2.274 63.948C2.248 63.9133 2.235 63.805 2.235 63.623V54.731C2.235 54.549 2.248 54.445 2.274 54.419C2.30867 54.3843 2.417 54.367 2.599 54.367H4.64C6.28667 54.367 7.526 54.8133 8.358 55.706C9.10333 56.5293 9.476 57.6777 9.476 59.151Z" fill="white"/>
<path d="M15.5023 64C15.3203 64 15.212 63.987 15.1773 63.961C15.1513 63.9263 15.1383 63.818 15.1383 63.636V54.679C15.1383 54.5143 15.1513 54.419 15.1773 54.393C15.212 54.3583 15.3116 54.341 15.4763 54.341H19.9873C20.1086 54.341 20.1693 54.4017 20.1693 54.523V54.978C20.1693 55.0993 20.1086 55.16 19.9873 55.16H16.0873V58.592H19.7923C19.9136 58.592 19.9743 58.6527 19.9743 58.774V59.242C19.9743 59.3633 19.9136 59.424 19.7923 59.424H16.0873V63.168H20.1433C20.2646 63.168 20.3253 63.2287 20.3253 63.35V63.818C20.3253 63.9393 20.2646 64 20.1433 64H15.5023Z" fill="white"/>
<path d="M32.2225 54.549C32.2399 54.497 32.2702 54.4537 32.3135 54.419C32.3569 54.3843 32.4045 54.367 32.4565 54.367H33.0415C33.0935 54.367 33.1325 54.3887 33.1585 54.432C33.1845 54.4667 33.1889 54.5057 33.1715 54.549L29.6225 63.818C29.5965 63.8873 29.5662 63.935 29.5315 63.961C29.5055 63.9783 29.4579 63.987 29.3885 63.987H28.6735C28.6042 63.987 28.5522 63.9783 28.5175 63.961C28.4915 63.935 28.4655 63.8873 28.4395 63.818L24.9685 54.549C24.9512 54.5057 24.9555 54.4667 24.9815 54.432C25.0075 54.3887 25.0465 54.367 25.0985 54.367H25.7485C25.8525 54.367 25.9305 54.4277 25.9825 54.549L29.0375 63.038C29.5575 61.6427 30.0819 60.243 30.6105 58.839C31.1392 57.4263 31.6765 55.9963 32.2225 54.549Z" fill="white"/>
<path d="M49.5423 56.239C49.5423 55.797 49.4166 55.4503 49.1653 55.199C48.9313 54.965 48.5976 54.848 48.1643 54.848C47.9476 54.848 47.744 54.8783 47.5533 54.939C47.3713 54.9997 47.2066 55.0863 47.0593 55.199C46.73 55.485 46.5653 55.836 46.5653 56.252C46.5653 56.5033 46.6693 56.8067 46.8773 57.162C47.0853 57.5087 47.3453 57.864 47.6573 58.228C47.9693 58.0807 48.2336 57.9463 48.4503 57.825C48.6756 57.7037 48.836 57.5997 48.9313 57.513C49.3386 57.1577 49.5423 56.733 49.5423 56.239ZM47.3713 59.112C46.8426 59.32 46.4223 59.6017 46.1103 59.957C45.729 60.3643 45.5383 60.828 45.5383 61.348C45.5383 61.946 45.768 62.44 46.2273 62.83C46.6693 63.168 47.1893 63.337 47.7873 63.337C48.004 63.337 48.225 63.311 48.4503 63.259C48.6756 63.1983 48.8923 63.1203 49.1003 63.025C49.3083 62.921 49.5033 62.7997 49.6853 62.661C49.876 62.5223 50.0406 62.3707 50.1793 62.206L47.3713 59.112ZM52.7793 63.753C52.8486 63.8223 52.879 63.8613 52.8703 63.87C52.8616 63.8787 52.8096 63.883 52.7143 63.883H51.9083C51.8216 63.883 51.7653 63.883 51.7393 63.883C51.722 63.8743 51.683 63.8353 51.6223 63.766L50.7123 62.791C49.941 63.649 48.9573 64.078 47.7613 64.078C46.886 64.078 46.158 63.8613 45.5773 63.428C44.936 62.934 44.6153 62.2537 44.6153 61.387C44.6153 60.0957 45.378 59.1597 46.9033 58.579C46.678 58.3277 46.496 58.1197 46.3573 57.955C46.2186 57.7817 46.1146 57.6387 46.0453 57.526C45.768 57.0753 45.6293 56.6333 45.6293 56.2C45.6293 55.5673 45.9066 55.0473 46.4613 54.64C46.6953 54.4753 46.964 54.3453 47.2673 54.25C47.5706 54.1547 47.887 54.107 48.2163 54.107C48.8403 54.107 49.3646 54.2673 49.7893 54.588C50.2573 54.978 50.4913 55.4807 50.4913 56.096C50.4913 56.7893 50.2443 57.344 49.7503 57.76V57.747C49.603 57.877 49.3993 58.0243 49.1393 58.189C48.8793 58.345 48.55 58.5227 48.1513 58.722C48.5933 59.2073 49.018 59.6797 49.4253 60.139C49.8413 60.5983 50.266 61.0707 50.6993 61.556C50.9766 61.166 51.1803 60.75 51.3103 60.308C51.449 59.8573 51.527 59.359 51.5443 58.813C51.5443 58.7177 51.553 58.6613 51.5703 58.644C51.5876 58.6267 51.644 58.618 51.7393 58.618H52.1553C52.2593 58.618 52.32 58.6267 52.3373 58.644C52.3546 58.6613 52.3633 58.7177 52.3633 58.813C52.346 59.385 52.2506 59.9483 52.0773 60.503C51.904 61.0577 51.6353 61.595 51.2713 62.115L52.7793 63.753Z" fill="white"/>
<path d="M71.1332 59.099C71.1332 57.721 70.7518 56.7027 69.9892 56.044C69.3132 55.4633 68.3858 55.173 67.2072 55.173H65.8032V63.168H66.5962C69.6208 63.168 71.1332 61.8117 71.1332 59.099ZM72.0822 59.151C72.0822 59.957 71.9435 60.6763 71.6662 61.309C71.3888 61.9417 71.0032 62.466 70.5092 62.882C70.0412 63.2373 69.4735 63.5103 68.8062 63.701C68.1388 63.8917 67.3848 63.987 66.5442 63.987H65.2052C65.0232 63.987 64.9148 63.974 64.8802 63.948C64.8542 63.9133 64.8412 63.805 64.8412 63.623V54.731C64.8412 54.549 64.8542 54.445 64.8802 54.419C64.9148 54.3843 65.0232 54.367 65.2052 54.367H67.2462C68.8928 54.367 70.1322 54.8133 70.9642 55.706C71.7095 56.5293 72.0822 57.6777 72.0822 59.151Z" fill="white"/>
<path d="M78.1085 64C77.9265 64 77.8182 63.987 77.7835 63.961C77.7575 63.9263 77.7445 63.818 77.7445 63.636V54.679C77.7445 54.5143 77.7575 54.419 77.7835 54.393C77.8182 54.3583 77.9178 54.341 78.0825 54.341H82.5935C82.7148 54.341 82.7755 54.4017 82.7755 54.523V54.978C82.7755 55.0993 82.7148 55.16 82.5935 55.16H78.6935V58.592H82.3985C82.5198 58.592 82.5805 58.6527 82.5805 58.774V59.242C82.5805 59.3633 82.5198 59.424 82.3985 59.424H78.6935V63.168H82.7495C82.8708 63.168 82.9315 63.2287 82.9315 63.35V63.818C82.9315 63.9393 82.8708 64 82.7495 64H78.1085Z" fill="white"/>
<path d="M88.4197 63.857C88.281 63.8137 88.2247 63.7357 88.2507 63.623L88.3027 63.025C88.3201 62.9557 88.3461 62.908 88.3807 62.882C88.4241 62.856 88.4717 62.8603 88.5237 62.895C88.8271 63.0597 89.1304 63.181 89.4337 63.259C89.7457 63.3283 90.1011 63.363 90.4997 63.363C91.1324 63.363 91.6481 63.1897 92.0467 62.843C92.4541 62.4963 92.6577 62.0067 92.6577 61.374C92.6577 61.1227 92.5581 60.8713 92.3587 60.62C92.1681 60.3687 91.8994 60.1303 91.5527 59.905C91.2494 59.7143 90.9071 59.515 90.5257 59.307C90.1444 59.099 89.7804 58.8737 89.4337 58.631C89.0871 58.3797 88.7967 58.1023 88.5627 57.799C88.3287 57.487 88.2117 57.1273 88.2117 56.72C88.2117 56.304 88.2984 55.94 88.4717 55.628C88.6451 55.3073 88.8747 55.043 89.1607 54.835C89.4554 54.6183 89.7891 54.4537 90.1617 54.341C90.5344 54.2283 90.9157 54.172 91.3057 54.172C91.6437 54.172 91.9427 54.1937 92.2027 54.237C92.4627 54.2717 92.7444 54.3367 93.0477 54.432C93.1777 54.4753 93.2297 54.5533 93.2037 54.666L93.0997 55.173C93.0737 55.3203 93.0001 55.3593 92.8787 55.29C92.6361 55.1773 92.3977 55.1037 92.1637 55.069C91.9384 55.0257 91.6481 55.004 91.2927 55.004C91.0067 55.004 90.7337 55.0387 90.4737 55.108C90.2224 55.1773 90.0014 55.2813 89.8107 55.42C89.6287 55.5587 89.4814 55.732 89.3687 55.94C89.2561 56.148 89.1997 56.395 89.1997 56.681C89.1997 56.9063 89.2734 57.1187 89.4207 57.318C89.5767 57.5173 89.7631 57.7037 89.9797 57.877C90.2051 58.0503 90.4434 58.2107 90.6947 58.358C90.9547 58.4967 91.1887 58.6267 91.3967 58.748C91.6827 58.9127 91.9601 59.0817 92.2287 59.255C92.4974 59.4283 92.7357 59.6233 92.9437 59.84C93.1517 60.0567 93.3207 60.295 93.4507 60.555C93.5807 60.815 93.6457 61.114 93.6457 61.452C93.6457 61.8853 93.5547 62.271 93.3727 62.609C93.1994 62.947 92.9654 63.233 92.6707 63.467C92.3761 63.701 92.0337 63.8787 91.6437 64C91.2624 64.13 90.8637 64.195 90.4477 64.195C90.0664 64.195 89.7241 64.169 89.4207 64.117C89.1261 64.065 88.7924 63.9783 88.4197 63.857Z" fill="white"/>
<path d="M99.9367 64.377C99.9367 64.4983 99.876 64.559 99.7547 64.559H99.1307C99.0094 64.559 98.9487 64.4983 98.9487 64.377V55.121C98.9487 54.9997 99.0094 54.939 99.1307 54.939H99.7547C99.876 54.939 99.9367 54.9997 99.9367 55.121V64.377Z" fill="white"/>
<path d="M112.926 58.787C113.108 58.787 113.212 58.8043 113.238 58.839C113.273 58.865 113.29 58.969 113.29 59.151V63.272C113.29 63.3673 113.26 63.4497 113.199 63.519C113.147 63.5883 113.086 63.6403 113.017 63.675C112.601 63.831 112.163 63.948 111.704 64.026C111.253 64.1127 110.781 64.156 110.287 64.156C109.568 64.156 108.9 64.0477 108.285 63.831C107.678 63.6057 107.154 63.285 106.712 62.869C106.27 62.4443 105.923 61.9243 105.672 61.309C105.429 60.685 105.308 59.9743 105.308 59.177C105.308 58.449 105.421 57.7817 105.646 57.175C105.88 56.5683 106.209 56.044 106.634 55.602C107.067 55.16 107.592 54.8177 108.207 54.575C108.822 54.3237 109.516 54.198 110.287 54.198C110.772 54.198 111.193 54.2197 111.548 54.263C111.912 54.3063 112.298 54.393 112.705 54.523C112.835 54.5577 112.887 54.6443 112.861 54.783L112.796 55.264C112.787 55.3767 112.722 55.4157 112.601 55.381C112.211 55.2337 111.838 55.1383 111.483 55.095C111.128 55.043 110.729 55.017 110.287 55.017C109.672 55.017 109.113 55.121 108.61 55.329C108.116 55.5283 107.691 55.81 107.336 56.174C106.989 56.538 106.721 56.9757 106.53 57.487C106.348 57.9983 106.257 58.5617 106.257 59.177C106.257 59.8443 106.357 60.438 106.556 60.958C106.755 61.478 107.033 61.9157 107.388 62.271C107.752 62.6177 108.177 62.882 108.662 63.064C109.156 63.246 109.698 63.337 110.287 63.337C111.249 63.337 111.934 63.22 112.341 62.986V59.606H109.728C109.607 59.606 109.546 59.5453 109.546 59.424V58.969C109.546 58.8477 109.607 58.787 109.728 58.787H112.926Z" fill="white"/>
<path d="M120.166 63.805C120.166 63.9263 120.105 63.987 119.984 63.987H119.399C119.277 63.987 119.217 63.9263 119.217 63.805V54.705C119.217 54.523 119.23 54.419 119.256 54.393C119.29 54.3583 119.399 54.341 119.581 54.341H120.179C120.291 54.341 120.365 54.354 120.4 54.38C120.443 54.3973 120.486 54.445 120.53 54.523L125.431 62.934V54.523C125.431 54.4017 125.491 54.341 125.613 54.341H126.185C126.306 54.341 126.367 54.4017 126.367 54.523V63.623C126.367 63.805 126.349 63.9133 126.315 63.948C126.289 63.974 126.185 63.987 126.003 63.987H125.21C125.14 63.987 125.088 63.9783 125.054 63.961C125.028 63.9437 124.993 63.9003 124.95 63.831L120.166 55.563V63.805Z" fill="white"/>
<path d="M143.537 63.285C143.312 63.5277 143.022 63.7357 142.666 63.909C142.32 64.0737 141.951 64.1733 141.561 64.208C141.353 64.2253 141.119 64.2253 140.859 64.208C140.608 64.1907 140.361 64.1603 140.118 64.117C139.884 64.0823 139.668 64.0433 139.468 64C139.278 63.948 139.139 63.9003 139.052 63.857C138.922 63.7963 138.844 63.753 138.818 63.727C138.792 63.6923 138.788 63.6273 138.805 63.532L138.896 62.57C138.905 62.5007 138.927 62.4573 138.961 62.44C138.996 62.4227 139.061 62.4357 139.156 62.479C139.26 62.5223 139.408 62.5743 139.598 62.635C139.789 62.687 140.001 62.7347 140.235 62.778C140.469 62.8127 140.703 62.8343 140.937 62.843C141.18 62.8517 141.397 62.8343 141.587 62.791C141.839 62.7303 142.042 62.6523 142.198 62.557C142.354 62.453 142.476 62.336 142.562 62.206C142.658 62.0673 142.723 61.92 142.757 61.764C142.792 61.5993 142.809 61.4303 142.809 61.257C142.809 61.0923 142.701 60.867 142.484 60.581C142.276 60.295 141.973 60.035 141.574 59.801C141.089 59.515 140.669 59.2507 140.313 59.008C139.958 58.7567 139.663 58.5097 139.429 58.267C139.204 58.0243 139.035 57.773 138.922 57.513C138.81 57.253 138.753 56.967 138.753 56.655C138.753 56.2997 138.827 55.9617 138.974 55.641C139.13 55.3117 139.338 55.0257 139.598 54.783C139.867 54.5403 140.183 54.3497 140.547 54.211C140.92 54.0637 141.327 53.99 141.769 53.99C142.22 53.99 142.588 54.0203 142.874 54.081C143.169 54.133 143.42 54.198 143.628 54.276C143.724 54.3107 143.78 54.3497 143.797 54.393C143.823 54.4277 143.828 54.4753 143.81 54.536L143.641 55.368C143.624 55.4633 143.594 55.5283 143.55 55.563C143.516 55.5977 143.451 55.5977 143.355 55.563C143.225 55.5197 143.082 55.4807 142.926 55.446C142.77 55.4027 142.61 55.368 142.445 55.342C142.281 55.316 142.12 55.2987 141.964 55.29C141.817 55.2813 141.683 55.2857 141.561 55.303C141.076 55.381 140.734 55.5413 140.534 55.784C140.344 56.018 140.248 56.317 140.248 56.681C140.248 56.8977 140.361 57.1403 140.586 57.409C140.812 57.669 141.141 57.929 141.574 58.189C142.12 58.5183 142.567 58.813 142.913 59.073C143.269 59.333 143.546 59.5843 143.745 59.827C143.953 60.061 144.096 60.2993 144.174 60.542C144.261 60.7847 144.304 61.049 144.304 61.335C144.304 62.0977 144.049 62.7477 143.537 63.285Z" fill="white"/>
<path d="M152.688 55.55V63.831C152.688 63.935 152.636 63.987 152.532 63.987H151.375C151.271 63.987 151.219 63.935 151.219 63.831V55.55H148.697C148.654 55.55 148.615 55.537 148.58 55.511C148.554 55.4763 148.541 55.433 148.541 55.381V54.341C148.541 54.2977 148.554 54.263 148.58 54.237C148.615 54.2023 148.654 54.185 148.697 54.185H155.223C155.267 54.185 155.301 54.2023 155.327 54.237C155.362 54.263 155.379 54.2977 155.379 54.341V55.381C155.379 55.4937 155.327 55.55 155.223 55.55H152.688Z" fill="white"/>
<path d="M165.921 63.454C165.601 63.7053 165.241 63.8917 164.842 64.013C164.452 64.143 164.028 64.208 163.568 64.208C162.667 64.208 161.887 63.9567 161.228 63.454C160.795 63.1247 160.479 62.713 160.279 62.219C160.089 61.7163 159.993 61.14 159.993 60.49V54.367C159.993 54.3237 160.006 54.2803 160.032 54.237C160.067 54.1937 160.106 54.172 160.149 54.172H161.306C161.35 54.172 161.384 54.1893 161.41 54.224C161.445 54.2587 161.462 54.2977 161.462 54.341V60.49C161.462 61.166 161.64 61.7207 161.995 62.154C162.351 62.5873 162.875 62.804 163.568 62.804C164.279 62.804 164.808 62.5917 165.154 62.167C165.51 61.7423 165.687 61.1833 165.687 60.49V54.341C165.687 54.2977 165.7 54.2587 165.726 54.224C165.761 54.1893 165.8 54.172 165.843 54.172H167C167.044 54.172 167.078 54.1937 167.104 54.237C167.139 54.2803 167.156 54.3237 167.156 54.367V60.49C167.156 61.1313 167.052 61.7033 166.844 62.206C166.645 62.7087 166.337 63.1247 165.921 63.454Z" fill="white"/>
<path d="M178.565 62.869C178.331 63.0597 178.066 63.2243 177.772 63.363C177.477 63.5017 177.161 63.6187 176.823 63.714C176.485 63.8007 176.134 63.87 175.77 63.922C175.406 63.9653 175.046 63.987 174.691 63.987H173.105C172.957 63.987 172.866 63.9697 172.832 63.935C172.806 63.9003 172.793 63.818 172.793 63.688V54.523C172.793 54.3583 172.806 54.263 172.832 54.237C172.866 54.2023 172.966 54.185 173.131 54.185H175.341C177.031 54.185 178.287 54.6617 179.111 55.615C179.475 56.031 179.743 56.5163 179.917 57.071C180.099 57.617 180.19 58.28 180.19 59.06C180.19 59.866 180.047 60.5983 179.761 61.257C179.483 61.9157 179.085 62.453 178.565 62.869ZM177.993 56.59C177.438 55.9053 176.545 55.563 175.315 55.563H174.301V62.596H174.886C175.388 62.596 175.861 62.5353 176.303 62.414C176.745 62.284 177.135 62.0803 177.473 61.803C177.863 61.5083 178.162 61.1313 178.37 60.672C178.586 60.204 178.695 59.6493 178.695 59.008C178.695 58.488 178.638 58.0287 178.526 57.63C178.413 57.2227 178.235 56.876 177.993 56.59Z" fill="white"/>
<path d="M186.905 63.818C186.905 63.9307 186.849 63.987 186.736 63.987H185.553C185.44 63.987 185.384 63.9307 185.384 63.818V54.354C185.384 54.2413 185.44 54.185 185.553 54.185H186.736C186.849 54.185 186.905 54.2413 186.905 54.354V63.818Z" fill="white"/>
<path d="M199.4 62.752C199.01 63.246 198.538 63.6143 197.983 63.857C197.437 64.091 196.822 64.208 196.137 64.208C195.375 64.208 194.716 64.0737 194.161 63.805C193.615 63.5277 193.165 63.155 192.809 62.687C192.463 62.219 192.203 61.6773 192.029 61.062C191.865 60.438 191.782 59.7793 191.782 59.086C191.782 58.41 191.869 57.7643 192.042 57.149C192.216 56.525 192.48 55.979 192.835 55.511C193.191 55.043 193.641 54.6703 194.187 54.393C194.733 54.1157 195.383 53.977 196.137 53.977C196.874 53.977 197.515 54.12 198.061 54.406C198.607 54.6833 199.058 55.056 199.413 55.524C199.777 55.992 200.046 56.5337 200.219 57.149C200.401 57.7643 200.488 58.41 200.479 59.086C200.471 59.8487 200.38 60.5377 200.206 61.153C200.033 61.7597 199.764 62.2927 199.4 62.752ZM196.137 55.368C195.635 55.368 195.201 55.4807 194.837 55.706C194.482 55.9227 194.187 56.2087 193.953 56.564C193.728 56.9107 193.559 57.3093 193.446 57.76C193.342 58.202 193.29 58.644 193.29 59.086C193.29 59.528 193.342 59.9743 193.446 60.425C193.559 60.867 193.728 61.2657 193.953 61.621C194.187 61.9763 194.482 62.2667 194.837 62.492C195.201 62.7087 195.635 62.817 196.137 62.817C196.64 62.817 197.069 62.7087 197.424 62.492C197.788 62.2667 198.083 61.9763 198.308 61.621C198.534 61.2657 198.698 60.867 198.802 60.425C198.915 59.9743 198.971 59.528 198.971 59.086C198.971 58.6527 198.919 58.215 198.815 57.773C198.711 57.331 198.542 56.9323 198.308 56.577C198.083 56.2217 197.788 55.9313 197.424 55.706C197.069 55.4807 196.64 55.368 196.137 55.368Z" fill="white"/>
</svg>
