<svg width="215" height="53" viewBox="0 0 215 53" fill="none" xmlns="http://www.w3.org/2000/svg">
<path d="M37.376 0.799984C37.888 0.799984 38.336 1.24798 38.336 1.75998V51.104C38.336 51.616 37.888 52 37.376 52H27.904C27.392 52 26.944 51.616 26.944 51.104V32.544C26.944 28.96 27.008 27.232 25.152 25.12L9.024 5.21598C8.832 5.02398 8.704 4.76798 8.448 4.51198C7.552 3.35998 6.976 2.65598 4.608 2.65598H1.792V50.208H9.088V19.232C9.088 19.168 9.088 18.976 9.152 18.912C9.216 18.784 9.28 18.72 9.408 18.656C9.472 18.528 9.664 18.464 9.728 18.464C9.792 18.464 9.984 18.4 9.984 18.4C10.112 18.4 10.24 18.464 10.368 18.464C10.496 18.528 10.624 18.592 10.688 18.72L18.944 28.896C19.2 29.28 19.2 29.856 18.752 30.176C18.368 30.496 17.792 30.496 17.472 30.048L10.88 21.856V51.104C10.88 51.616 10.496 52 9.984 52H0.896C0.384 52 0 51.616 0 51.104V1.75998C0 1.24798 0.384 0.799984 0.896 0.799984H4.608C7.872 0.799984 8.768 2.07998 9.856 3.35998C9.984 3.61598 10.24 3.80798 10.432 3.99998L26.624 23.904C28.8 26.592 28.8 28.832 28.8 32.544L28.736 33.632L28.8 50.208H36.48V2.65598H33.792C30.976 2.65598 30.976 2.59198 30.144 4.06398C29.44 5.15198 24.832 12.896 24.768 12.96C24.512 13.344 23.936 13.536 23.552 13.28C23.104 13.024 22.976 12.448 23.232 12.064C23.424 11.744 27.904 4.25598 28.608 3.10398C30.016 0.799984 30.848 0.799984 33.856 0.799984H37.376Z" fill="white"/>
<path d="M58.574 52C56.014 52 51.406 51.488 48.206 47.52C45.134 43.68 44.814 39.2 44.75 37.024C44.75 36.576 45.006 36.128 45.454 36.064L53.262 34.656C53.518 34.592 53.774 34.656 53.966 34.848C54.222 34.976 54.35 35.168 54.35 35.424C54.606 39.2 55.31 41.568 57.806 41.568C59.406 41.568 61.262 40.992 61.262 36.128C61.262 35.04 61.134 34.336 60.942 33.696C60.878 33.248 61.134 32.672 61.646 32.544C62.094 32.48 62.606 32.736 62.67 33.184C62.926 34.016 62.99 34.848 62.99 36.128C62.99 40.992 61.262 43.424 57.806 43.424C53.71 43.424 52.878 39.264 52.622 36.576L46.542 37.664C46.734 39.904 47.246 43.36 49.614 46.368C52.302 49.696 56.334 50.208 58.574 50.208C65.998 50.208 70.478 45.152 70.478 36.64C70.478 34.08 69.774 32.16 68.238 30.816C65.742 28.64 61.07 27.872 54.478 28.64C54.222 28.64 53.966 28.576 53.774 28.448C53.582 28.256 53.454 27.936 53.454 27.68V22.752C53.454 22.304 53.902 21.856 54.35 21.856L56.078 21.792C58.766 21.472 60.43 21.216 60.43 15.328C60.43 13.984 60.174 10.848 58.062 10.848C56.014 10.848 55.502 13.28 55.054 15.904C55.054 16.16 54.862 16.352 54.67 16.48C54.478 16.672 54.222 16.672 53.966 16.672L46.35 14.816C45.902 14.688 45.582 14.24 45.71 13.792V13.664C46.286 10.528 48.206 0.799984 58.766 0.799984C66.51 0.799984 71.182 5.85598 71.182 14.304C71.182 18.464 70.414 21.216 68.558 23.392C68.302 23.776 67.662 23.84 67.278 23.52C66.958 23.2 66.894 22.56 67.214 22.24C68.75 20.32 69.39 18.08 69.39 14.304C69.39 10.784 68.366 2.59198 58.766 2.59198C50.318 2.59198 48.334 9.75998 47.566 13.28L53.454 14.624C53.838 12.32 54.798 9.11998 58.062 9.11998C60.622 9.11998 62.222 11.424 62.222 15.328C62.222 22.24 59.79 23.072 56.27 23.52L55.246 23.584V26.72C61.902 26.144 66.638 27.04 69.39 29.472C71.31 31.2 72.27 33.568 72.27 36.64C72.27 44.064 68.622 52 58.574 52Z" fill="#00FFAD"/>
<path d="M96.3515 52H87.0075C86.4955 52 86.1115 51.616 86.1115 51.104V16.928C86.1115 16.416 86.4955 16.032 87.0075 16.032C87.5195 16.032 87.9035 16.416 87.9035 16.928V50.208H95.3915V15.2C95.3915 12.064 94.2395 11.808 92.4475 11.808H79.5835C79.0715 11.808 78.6875 11.36 78.6875 10.848V1.75998C78.6875 1.24798 79.0715 0.799984 79.5835 0.799984H103.967C104.479 0.799984 104.864 1.24798 104.864 1.75998V11.04C104.864 11.552 104.479 12 103.967 12H101.535C101.023 12 100.64 11.552 100.64 11.04C100.64 10.528 101.023 10.144 101.535 10.144H103.007V2.65598H80.4795V9.95198H92.4475C94.6875 9.95198 97.2475 10.528 97.2475 15.2V51.104C97.2475 51.616 96.8635 52 96.3515 52Z" fill="white"/>
<path d="M121.682 52.064H121.618L112.146 52C111.634 52 111.25 51.616 111.25 51.104V1.82398C111.25 1.31198 111.634 0.863983 112.146 0.863983H121.682C122.194 0.863983 122.514 1.31198 122.514 1.82398V24.864C122.514 28.256 123.026 29.216 126.354 29.216H129.554C130.066 29.216 130.45 29.6 130.45 30.112V50.208H138.13V2.71998H130.45V24.096C130.45 24.608 130.066 24.992 129.554 24.992C129.042 24.992 128.658 24.608 128.658 24.096V1.82398C128.658 1.31198 129.042 0.863983 129.554 0.863983H139.026C139.538 0.863983 139.986 1.31198 139.986 1.82398V51.104C139.986 51.616 139.538 52 139.026 52H129.554C129.042 52 128.658 51.616 128.658 51.104V31.008H126.354C121.618 31.008 120.722 28.896 120.722 24.864V2.71998H113.042V50.208H120.722V34.912C120.722 34.4 121.17 34.016 121.682 34.016C122.194 34.016 122.514 34.4 122.514 34.912V51.168C122.514 51.424 122.45 51.68 122.258 51.808C122.13 52 121.938 52.064 121.682 52.064Z" fill="white"/>
<path d="M165.063 52.768H164.935C158.663 52.768 157.511 47.968 157.063 45.92L156.999 45.536C156.295 42.528 156.359 34.976 156.423 29.984V27.104C156.423 20.32 156.615 15.2 157.447 12.704C158.343 10.272 159.687 8.92798 161.671 8.92798C164.039 8.92798 165.319 10.016 166.151 12.768C167.111 15.904 167.111 22.816 167.111 26.144C167.111 27.68 167.111 35.744 166.599 39.072C166.279 40.928 165.703 42.912 163.975 43.808C163.527 44.064 162.951 43.872 162.759 43.424C162.503 42.912 162.695 42.336 163.143 42.144C163.975 41.696 164.423 40.8 164.743 38.752C165.255 35.488 165.319 27.04 165.319 26.144C165.319 23.136 165.319 16.224 164.423 13.344C163.783 11.168 163.015 10.848 161.671 10.848C160.903 10.848 159.943 11.104 159.175 13.28C158.407 15.648 158.279 21.344 158.279 27.104C158.279 27.936 158.215 28.832 158.215 29.984C158.151 34.848 158.151 42.336 158.791 45.088L158.919 45.472C159.431 47.648 160.135 50.912 165.063 50.912H165.127C172.679 50.848 175.303 37.984 175.303 26.976C175.303 9.95198 171.079 1.95198 161.863 1.95198C152.519 1.95198 148.167 9.63198 148.167 26.08C148.167 35.104 149.447 41.632 151.943 46.048C152.071 46.24 152.391 46.816 152.967 47.52C153.287 47.904 153.223 48.544 152.839 48.864C152.519 49.184 151.879 49.184 151.559 48.736C150.919 47.968 150.535 47.328 150.407 47.072C147.655 42.272 146.375 35.616 146.375 26.08C146.375 8.54398 151.431 0.0319824 161.863 0.0319824C175.559 0.0319824 177.223 15.392 177.223 26.976C177.223 39.456 174.023 52.768 165.063 52.768Z" fill="white"/>
<path d="M206.793 4.12798C211.529 7.83998 214.089 15.392 214.089 25.824C214.089 36.576 211.785 44.064 206.985 48.608C205.257 50.208 202.057 52 196.937 52H184.521C184.009 52 183.625 51.616 183.625 51.104C183.625 50.592 184.009 50.208 184.521 50.208H196.937C201.481 50.208 204.297 48.608 205.769 47.264C210.121 43.04 212.297 36.064 212.297 25.824C212.297 18.976 211.081 9.82398 205.641 5.59998C202.249 2.84798 198.537 2.65598 193.353 2.65598H185.417V38.112C185.417 41.248 186.633 41.504 188.489 41.504H196.617C198.153 41.504 200.265 41.248 201.033 38.944C201.993 36.192 202.185 29.728 202.185 26.72C202.185 11.232 199.625 11.296 196.617 11.296H194.697V36.448C194.697 36.96 194.377 37.408 193.865 37.408C193.353 37.408 192.905 36.96 192.905 36.448V10.336C192.905 9.82398 193.353 9.37598 193.865 9.37598H196.617C201.801 9.37598 204.041 11.872 204.041 26.72C204.041 27.104 203.977 35.808 202.825 39.456C202.185 41.248 200.649 43.36 196.617 43.36H188.489C186.185 43.36 183.625 42.784 183.625 38.112V1.75998C183.625 1.24798 184.009 0.799984 184.521 0.799984H193.353C198.729 0.799984 202.889 1.05598 206.793 4.12798Z" fill="white"/>
</svg>
